<svg xmlns="http://www.w3.org/2000/svg" xmlns:xlink="http://www.w3.org/1999/xlink" width="100" height="66.66666666666667" viewBox="0 0 48 32"><title>icon/card/small/bca</title><defs><polygon id="path-1" points="0 0.0222728373 9.98954086 0.0222728373 9.98954086 10 0 10"></polygon></defs><g id="icon/card/small/bca" stroke="none" stroke-width="1" fill="none" fill-rule="evenodd"><g id="Group"><g id="Group-2" fill="#005FAF" fill-rule="nonzero"><rect id="Rectangle" x="0" y="0" width="48" height="32" rx="6"></rect></g><g id="Group-48" transform="translate(8.000000, 11.000000)"><path d="M25.0107565,6.64456028 C25.0248856,6.71097688 24.9927742,6.74468581 24.9749202,6.78168092 C24.5870147,7.58509851 24.1968484,8.38743783 23.8112549,9.1919337 C23.7705633,9.27678367 23.7162051,9.32474124 23.6277318,9.35079955 C23.0958131,9.50738049 22.5507672,9.54075567 22.0016881,9.51682824 C21.4162333,9.49136041 20.8468084,9.38078587 20.3138364,9.12785335 C19.3738205,8.68172989 18.8438027,7.92342014 18.642734,6.91672203 C18.4511703,5.95751937 18.6659827,5.05241017 19.0439466,4.18367991 C19.6200763,2.85948115 20.6350788,1.98466635 21.9659032,1.46177997 C22.6530613,1.19182612 23.3647267,1.04322955 24.1077586,1.07611694 C24.2706789,1.08333111 24.4327772,1.10307381 24.5862183,1.15796315 C24.6639022,1.18574157 24.7072911,1.17421429 24.7578472,1.10951779 C24.9100552,0.914709434 24.913215,0.91619848 25.1340386,1.03124016 C25.6226198,1.28579008 26.1099936,1.5427533 26.6000648,1.79442782 C26.675411,1.83309168 26.683426,1.86174299 26.6411931,1.93557916 C26.2360758,2.64372345 25.8333733,3.35322842 25.4353976,4.06537774 C25.3859203,4.15395033 25.3575339,4.14183257 25.2886614,4.08974162 C24.5385393,3.52238924 23.7099113,3.3085827 22.7897016,3.56993603 C21.9258796,3.81529495 21.2656437,4.56608245 21.2177592,5.43178327 C21.1682563,6.32680289 21.6311998,7.16192691 22.7093461,7.26559535 C23.503114,7.34192182 24.2206622,7.10986163 24.8960547,6.71418603 C24.9324818,6.69285159 24.9682924,6.67038753 25.0107565,6.64456028" id="Fill-1" fill="#FFFFFF"></path><path d="M16.523789,3.76205472 C16.3613588,4.03475876 16.1401826,4.22172649 15.7859747,4.19666896 C15.5921845,4.18292612 15.3965091,4.19251356 15.2017253,4.19511694 C15.1366361,4.19599308 15.1136319,4.18532923 15.1305475,4.11175872 C15.1976493,3.82010508 15.2578473,3.52689943 15.318937,3.2339441 C15.3308339,3.17681994 15.3545514,3.14940936 15.4204304,3.15226306 C15.5472462,3.15777021 15.6744696,3.15386514 15.8015146,3.15389017 C15.9243563,3.15389017 16.0472234,3.15136189 16.1699377,3.15436579 C16.5301323,3.16317723 16.7055804,3.45683347 16.523789,3.76205472 M16.1489461,6.28210136 C16.0839078,6.6106529 15.7330372,6.90686245 15.3907262,6.91780165 C15.2468929,6.92240763 15.102754,6.91857766 14.9587424,6.91857766 L14.9587424,6.91920347 C14.7978152,6.91920347 14.6368626,6.91792682 14.4759099,6.91987935 C14.4177245,6.92060529 14.3926568,6.91457246 14.4132918,6.84408095 C14.5173582,6.48896992 14.6158455,6.13225682 14.7148678,5.77571895 C14.7278347,5.72903334 14.7495906,5.70955806 14.8021969,5.71010877 C15.0690247,5.71291241 15.3362346,5.70284935 15.6026039,5.71386365 C15.9547992,5.72840753 16.2053993,5.9969812 16.1489461,6.28210136 M19.0193956,2.92566889 C19.1211692,2.311847 18.9526249,1.77334789 18.4334393,1.37978695 C18.0232623,1.06883326 17.5399968,0.96211972 17.0352556,0.958264715 C15.906167,0.949603471 14.776951,0.95521075 13.6477605,0.952380952 C13.5784168,0.952206851 13.5409427,0.972458142 13.5106526,1.03368763 C13.4143307,1.22834034 13.312124,1.42016437 13.2120318,1.61301474 C12.9233462,2.16928692 12.635807,2.72613484 12.344523,3.2810803 C12.300833,3.36433839 12.3027945,3.39550385 12.4095359,3.38872004 C12.523665,3.38146062 12.6390424,3.39280034 12.753146,3.38541575 C12.8564482,3.37870704 12.8790193,3.40118623 12.8512003,3.50742415 C12.3817678,5.30112781 11.9170483,7.09605807 11.4511314,8.89066291 C11.4105239,9.04709099 11.4100398,9.04699086 11.5758582,9.04699086 C12.8239163,9.04699086 14.0719489,9.04634002 15.3199814,9.04761905 C15.5413868,9.04784197 15.7607033,9.03204646 15.9783384,8.99229485 C17.3216484,8.7470014 18.3318185,7.64051491 18.4105116,6.46043288 C18.4505332,5.86042892 18.2543228,5.35384626 17.7635421,4.97472907 C17.6946825,4.92153501 17.6198362,4.87580064 17.5421621,4.82280684 C17.5716625,4.80731172 17.5940807,4.79594697 17.6160913,4.78385627 C18.367815,4.37142083 18.8785429,3.77519678 19.0193956,2.92566889" id="Fill-3" fill="#FFFFFF"></path><path d="M29.5160274,5.73995781 C29.2473248,5.73342643 28.9783338,5.73768059 28.6919258,5.73768059 C28.9847602,5.07085438 29.2708009,4.41944323 29.5568678,3.76808213 C29.5647369,3.76980881 29.572606,3.77158555 29.580475,3.77333726 C29.5846194,3.85884576 29.5907573,3.94430422 29.5925934,4.02986278 C29.604056,4.5622577 29.612712,5.09475272 29.6273485,5.62707257 C29.629683,5.71160512 29.6121349,5.74231011 29.5160274,5.73995781 M32.3803428,8.94053341 C32.341627,8.22848805 32.3068194,7.51624248 32.2707529,6.80404697 C32.1940557,5.28806651 32.1172535,3.77208604 32.0405563,2.25610557 C32.0205164,1.86041915 32.0008962,1.46475776 31.9804891,1.06909637 C31.9773152,1.00708581 31.9834006,0.95205707 31.8782961,0.952380952 C30.5886866,0.956336249 29.2990771,0.955235173 28.0094151,0.954008976 C27.9514463,0.953958927 27.9139633,0.965820511 27.8845067,1.01937281 C27.4792758,1.75671788 27.0724449,2.4932872 26.6633844,3.22870539 C26.6186356,3.309209 26.6505578,3.31689151 26.7252353,3.31566531 C26.8989319,3.31281252 27.072681,3.31476443 27.2471907,3.31476443 C27.254063,3.37312142 27.2194916,3.40895641 27.1987172,3.44849503 C26.2395825,5.27585458 25.2801592,7.10308901 24.3190047,8.92947261 C24.277797,9.0077991 24.25217,9.04818854 24.383636,9.04761905 C25.3060222,9.04338385 26.2284346,9.04415961 27.1508208,9.04733771 C27.2362789,9.04761905 27.2694864,9.01758366 27.2997037,8.94581357 C27.4672624,8.54822529 27.643005,8.15376507 27.8111145,7.75640202 C27.8398104,7.68861081 27.8734114,7.66296077 27.9523644,7.66353633 C28.4594473,7.66731502 28.9665826,7.66734004 29.4736655,7.6636114 C29.5585203,7.66301081 29.583544,7.68508237 29.5855375,7.76676214 C29.5950328,8.15861981 29.6139186,8.55030232 29.6238599,8.94216 C29.6258533,9.02066166 29.6450014,9.04761905 29.7330301,9.04731269 C30.581106,9.04403449 31.4292082,9.04403449 32.2773104,9.04726264 C32.3672801,9.04761905 32.384697,9.02016117 32.3803428,8.94053341" id="Fill-5" fill="#FFFFFF"></path><path d="M4.75684278,7.51159277 C4.75547852,7.2783313 4.75630777,7.04501887 4.75630777,6.81173192 C4.77629015,6.28902136 4.74509945,5.76842581 4.62485742,5.25659603 C4.50207412,4.73378354 4.31102438,4.24027526 3.92370861,3.83521471 C3.43113091,3.3200468 2.68057453,3.18802499 2.06291301,3.5018348 C1.66067065,3.70622525 1.50461013,4.04187306 1.44715076,4.45335505 C1.35911594,5.08385411 1.57924312,5.45731708 2.20792571,5.66000025 C2.54872292,5.76982731 2.90118321,5.84759812 3.23965316,5.96305669 C3.85843819,6.17422533 4.30776086,6.54888595 4.45213155,7.19006194 C4.4763672,7.29767207 4.50386638,7.40688757 4.50710315,7.51597565 C4.51039343,7.6279432 4.57833887,7.61293435 4.65481761,7.61841296 C4.74643696,7.62501278 4.75724403,7.57950207 4.75684278,7.51159277" id="Fill-7" fill="#FFFFFF"></path><path d="M2.77537454,8.15360898 C2.66609386,8.06193164 2.56203956,8.07800824 2.50242713,8.20351768 C2.42622354,8.36397846 2.39088401,8.54697701 2.38157122,8.73920944 C2.37529253,8.86906872 2.41684059,8.94685709 2.5039705,8.97990062 C2.54288782,8.9946799 2.58608447,8.98903274 2.62340581,9.00846711 C2.7428236,9.07071308 2.74252545,9.07374016 2.77590069,8.90524107 C2.79512259,8.80814551 2.8447733,8.68947881 2.82271022,8.61843141 C2.79699918,8.53570813 2.69576854,8.54049041 2.62900051,8.50090941 C2.58497956,8.53952378 2.5816473,8.60339775 2.57977071,8.66821292 C2.58138423,8.69975562 2.61982802,8.71125345 2.60609559,8.75841488 C2.56880932,8.73259565 2.57624552,8.68818149 2.57272034,8.65025393 C2.58948689,8.58393794 2.59730893,8.51436593 2.60716542,8.44550617 C2.61905633,8.39368965 2.62636977,8.3332752 2.67840569,8.34200032 C2.72858256,8.35042019 2.71313138,8.40536554 2.71179847,8.44962708 C2.70943081,8.52726283 2.75636311,8.49935771 2.78144277,8.51451856 C2.80785534,8.53049341 2.82709477,8.52159023 2.8396346,8.47124909 C2.87562304,8.32686491 2.85705006,8.22211261 2.77537454,8.15360898" id="Fill-9" fill="#FFFFFF"></path><path d="M4.26838775,7.23671825 C4.1411816,6.60035043 3.79292426,6.19001323 3.24686739,5.98627239 C2.87715833,5.84829197 2.49211254,5.76833707 2.12620069,5.61613443 C1.94040919,5.53886872 1.75614644,5.45589194 1.65810967,5.23809524 C1.51608459,5.44219648 1.43858722,5.66173977 1.42929148,5.94160965 C1.41146437,6.47900417 1.72525105,7.08007983 2.30498956,7.12144347 C2.57086743,7.14043414 2.8281153,7.08251951 3.08738505,7.03791222 C3.51733148,6.96386245 3.86161903,6.97783515 4.03631482,7.55298923 C4.04854476,7.59324392 4.069454,7.60757703 4.10784516,7.61229004 C4.27255481,7.63250055 4.29030795,7.6170585 4.28490803,7.42931419 C4.28305875,7.36491224 4.28086426,7.29920727 4.26838775,7.23671825" id="Fill-11" fill="#FFFFFF"></path><path d="M4.24121736,8.14590501 C4.200144,8.15120766 4.14092713,8.09651614 4.13428564,8.21909174 C4.12578899,8.37583993 4.10566044,8.53138414 4.09061505,8.6874663 C4.08482694,8.74758854 4.08119082,8.81952005 4.02171422,8.81119465 C3.96071639,8.80263869 3.96982525,8.72745387 3.97405503,8.66984205 C3.98522312,8.51744869 3.99475867,8.3642356 4.01449763,8.21373786 C4.03208459,8.07960916 3.95465,8.12869063 3.91617388,8.10532826 C3.86183609,8.07233404 3.85560274,8.12620582 3.85152137,8.18107665 C3.83857232,8.35465497 3.82632823,8.52841261 3.81157967,8.70170915 C3.79477187,8.89905971 3.88233567,9.04187245 4.02616662,9.04743126 C4.15422867,9.0524265 4.23262794,8.95767057 4.24674575,8.77448601 C4.26043687,8.59673218 4.27069593,8.4184404 4.28229071,8.24035355 C4.28524043,8.19519142 4.29850486,8.1385018 4.24121736,8.14590501" id="Fill-13" fill="#FFFFFF"></path><path d="M6.51683616,6.0787694 C6.74552357,5.97571803 6.98880577,5.9111512 7.23107407,5.84357776 C7.51533911,5.76430362 7.80582094,5.70146559 8.07114209,5.57020224 C8.33003298,5.44212089 8.4996208,5.24959798 8.55351749,4.97659828 C8.58201337,4.83215599 8.57072708,4.68611017 8.55909393,4.54008941 C8.4857464,3.61831456 7.5867122,3.27756605 6.94384739,3.41536876 C6.66828053,3.47444854 6.43663148,3.6075409 6.21872341,3.76824391 C6.19084121,3.77550987 6.16720138,3.78678464 6.14724359,3.80159217 C6.16279892,3.78302638 6.17475225,3.76110323 6.18286344,3.73554709 C6.48305734,3.41469227 6.72183037,3.0721899 6.76166589,2.62473198 C6.82498117,1.91319395 6.42259699,1.30155037 5.7131084,1.05257845 C5.32006276,0.91465047 4.93227338,0.928906787 4.53821385,1.03581663 C3.35403413,1.35707233 2.94666051,2.63773554 3.75209589,3.51571418 C3.88547687,3.66108351 4.02907687,3.79823479 4.16883473,3.93839267 C4.43084737,4.20116991 4.62906446,4.49787167 4.73298903,4.84779033 C4.82888245,5.17067461 4.8799509,5.4996222 4.90607212,5.83320498 C4.9475619,6.36304386 4.91919943,6.89303308 4.91815885,7.4230223 C4.91778531,7.62884944 4.8813917,7.59206864 5.10938539,7.60093813 C5.18988357,7.60404495 5.20455841,7.57430462 5.20181021,7.50703184 C5.19279185,7.28597124 5.19209814,7.06463504 5.18345332,6.84352433 C5.16352222,6.33382969 5.17531545,5.82606429 5.24991701,5.31947648 C5.33455083,4.7446638 5.58116822,4.25195647 6.04713449,3.86312734 C6.07442969,3.85543544 6.0978294,3.84413562 6.11765377,3.82940326 C6.10193835,3.84811937 6.08979825,3.87021792 6.08126016,3.89572394 C5.75019572,4.26521059 5.51433099,4.68340423 5.40040085,5.15326136 C5.20893418,5.94279571 5.28188149,6.74706243 5.27542456,7.54654364 C5.2752111,7.57112263 5.2765185,7.59206864 5.31077759,7.60356891 C5.44490564,7.64864292 5.53343496,7.59364711 5.54127933,7.45982815 C5.57868684,6.82049875 5.89974571,6.35688033 6.51683616,6.0787694" id="Fill-15" fill="#FFFFFF"></path><path d="M3.70315369,8.17322879 C3.6516178,8.13742654 3.59416711,8.12797977 3.53973383,8.10574469 C3.47148221,8.07785662 3.44475418,8.10363424 3.43194736,8.205388 C3.4066766,8.40600622 3.37790839,8.6062727 3.34118521,8.80289614 C3.32116062,8.91012702 3.33760204,8.94663275 3.4118199,8.96138076 C3.46651035,8.97225962 3.49078673,8.95813972 3.49762733,8.87658596 C3.50208486,8.82327202 3.5130058,8.77056106 3.52461252,8.71933243 C3.53057875,8.69297695 3.52241804,8.64267793 3.56030704,8.65345629 C3.59111542,8.66224983 3.61599186,8.68973591 3.6128373,8.73749736 C3.60877409,8.79905211 3.59943043,8.86105909 3.58616071,8.91985016 C3.56181574,9.02760865 3.61986648,9.0193176 3.65926418,9.03911561 C3.70426807,9.06170244 3.7205552,9.03956785 3.73188761,8.96942057 C3.75794701,8.80802151 3.73007031,8.62978912 3.80259087,8.48250997 C3.81147164,8.46449579 3.80852281,8.43396966 3.80951719,8.42427165 C3.81011724,8.29563479 3.76991376,8.2196084 3.70315369,8.17322879" id="Fill-17" fill="#FFFFFF"></path><path d="M5.05240967,8.60285643 C4.99195151,8.5857424 4.92868087,8.5859842 4.86722271,8.57370615 C4.80413957,8.56110571 4.78926461,8.60172803 4.79018128,8.67227977 C4.79186877,8.8018306 4.79066044,8.93146203 4.79066044,9.0610666 C4.78582712,9.06103973 4.78097297,9.06101286 4.77611882,9.060986 C4.77403549,9.10115159 4.77132716,9.14129032 4.76999384,9.18150964 C4.76751468,9.25748844 4.76638968,9.33354783 4.76359802,9.40952663 C4.76145219,9.46814959 4.75124389,9.52317242 4.82493117,9.52379035 C4.88749349,9.52435455 4.92313922,9.51298997 4.91980589,9.41965534 C4.9179309,9.3666475 4.93186836,9.3127262 4.93022253,9.25963777 C4.9278892,9.18384704 4.94997247,9.16367021 5.0084098,9.16332094 C5.15578436,9.16240748 5.22132584,9.08317782 5.23636746,8.90588501 C5.24963825,8.7496019 5.18628427,8.64073836 5.05240967,8.60285643" id="Fill-19" fill="#FFFFFF"></path><path d="M8.06606465,5.55645242 C7.93290704,5.6282208 7.79178506,5.67408884 7.65017144,5.71866599 C7.28867694,5.83245718 6.92322482,5.93097735 6.58451731,6.1222773 C6.07187159,6.41179529 5.78397389,6.87138209 5.72475723,7.50908522 C5.72158622,7.54330772 5.6927522,7.60837442 5.74705258,7.60941813 C5.82637686,7.61090129 5.91545996,7.65962578 5.97246429,7.52290056 C6.13497212,7.13307713 6.33907173,7.01483645 6.71951852,7.05993545 C6.77231943,7.06619768 6.82480078,7.0761678 6.87740504,7.08454489 C7.15193044,7.12821567 7.42289154,7.20064323 7.70545508,7.15117715 C8.15219798,7.07292682 8.49855032,6.72781786 8.56010222,6.26169418 C8.60823266,5.89722176 8.4983045,5.57172345 8.31881091,5.23809524 C8.2747364,5.4123938 8.18034371,5.49487388 8.06606465,5.55645242" id="Fill-21" fill="#FFFFFF"></path><path d="M6.12105586,8.44551196 C6.15615039,8.23664221 6.07245908,8.09450757 5.9011163,8.0952381 C5.8768462,8.10110774 5.83396336,8.11322164 5.79072222,8.12153298 C5.72841576,8.1335654 5.70148669,8.16238345 5.72006171,8.26934431 C5.74951773,8.43899327 5.76245424,8.61464485 5.78199102,8.78785192 C5.81431344,9.07475584 5.81418143,9.07478301 6.01234013,9.01812471 C6.18864254,8.96771349 6.2432927,8.77044158 6.13455811,8.56260396 C6.11224923,8.51993369 6.11300354,8.4934515 6.12105586,8.44551196" id="Fill-23" fill="#FFFFFF"></path><g id="Group-27"><mask id="mask-2" fill="white"><use xlink:href="#path-1"></use></mask><g id="Clip-26"></g><path d="M8.89915152,8.81780856 C8.87061616,8.87793451 8.82516162,8.90372796 8.7719798,8.9293199 C7.87021212,9.36302267 6.92177778,9.63005038 5.9250101,9.7272796 C4.29331818,9.88644836 2.7465,9.58692695 1.27463131,8.87687657 C1.2160202,8.84861461 1.17109596,8.81700252 1.14210606,8.75372796 C0.547888889,7.45654912 0.242535354,6.09692695 0.269631313,4.66944584 C0.292308081,3.47458438 0.550136364,2.33493703 1.11920202,1.27420655 C1.15644949,1.20476071 1.20415152,1.15806045 1.27715657,1.12345088 C2.44316667,0.570604534 3.67437879,0.312443325 4.99743434,0.303098237 C6.28841919,0.316171285 7.55341919,0.592720403 8.74814141,1.17602015 C8.82167677,1.21193955 8.86437879,1.25989924 8.89692929,1.33302267 C9.31425253,2.27042821 9.59559091,3.24559194 9.69639899,4.2672796 C9.85324242,5.85642317 9.58445455,7.37380353 8.89915152,8.81780856 M9.9485202,4.2329471 C9.8370303,3.13944584 9.54104545,2.09566751 9.09177778,1.09345088 C9.06079293,1.0243073 9.01811616,0.980201511 8.94930303,0.946624685 C7.48119697,0.230302267 5.9319798,-0.0655667506 4.30253535,0.0446851385 C3.16584343,0.121612091 2.08359596,0.402191436 1.05576768,0.892972292 C0.991727273,0.923551637 0.948292929,0.964055416 0.91420202,1.02632242 C0.347712121,2.06130982 0.0686717172,3.17571788 0.0114747475,4.34622166 C-0.0662777778,5.93823678 0.252585859,7.45526448 0.914656566,8.90329975 C0.945717172,8.97120907 0.985010101,9.017733 1.05533838,9.05188917 C2.61538889,9.80972292 4.25561616,10.1270277 5.98662626,9.95390428 C7.03402525,9.84911839 8.02975758,9.56478589 8.97579293,9.10491184 C9.03513636,9.07609572 9.07561616,9.04037783 9.1049596,8.97856423 C9.68599495,7.75498741 9.98907576,6.46871537 9.98912626,4.97168766 C9.99218182,4.81889169 9.97831818,4.52526448 9.9485202,4.2329471" id="Fill-25" fill="#FFFFFF" mask="url(#mask-2)"></path></g><path d="M7.3270861,8.14118512 C7.28845595,8.05001049 7.24383147,8.12212645 7.20299388,8.12532421 C7.16777003,8.1280615 7.14002483,8.14755506 7.1430886,8.21381271 C7.154906,8.46894304 7.16185182,8.72448269 7.17176625,8.97976652 C7.17277482,9.00560444 7.16523909,9.04113799 7.19993011,9.0466893 C7.2662674,9.05733146 7.33245246,8.9749315 7.32689581,8.8857267 C7.32293764,8.836123 7.30876057,8.78444714 7.3622148,8.76045113 C7.41005529,8.73898774 7.4228432,8.78685186 7.44295752,8.82264123 C7.45441336,8.84300458 7.46640203,8.86344468 7.4749273,8.88603368 C7.49863822,8.94886333 7.52860989,8.93307917 7.55679278,8.89662467 C7.581341,8.86490286 7.64562309,8.86474937 7.60695488,8.77884466 C7.51190188,8.56771555 7.41793356,8.35561432 7.3270861,8.14118512" id="Fill-28" fill="#FFFFFF"></path><path d="M7.10419065,8.63121546 C7.06555615,8.6379651 7.02385355,8.6359613 6.98940103,8.65615747 C6.95651187,8.67545721 6.97972775,8.72729229 6.97824256,8.76433619 C6.97648378,8.8084461 6.96683004,8.84222064 6.93226026,8.85160685 C6.90632805,8.85867288 6.88481232,8.84174606 6.87887156,8.80910525 C6.85252896,8.66451542 6.82774972,8.51926644 6.81940529,8.37019444 C6.81749018,8.33560256 6.83236163,8.31287527 6.85481537,8.2986114 C6.87209049,8.28764324 6.8930395,8.29412922 6.89729965,8.31313893 C6.93270973,8.47130713 7.01285141,8.38116259 7.08802943,8.37881604 C7.08212775,8.34106027 7.07868836,8.31522183 7.07399829,8.28977887 C7.04704989,8.14347526 6.99164836,8.08926726 6.87631156,8.09575324 C6.7430743,8.10329385 6.67852712,8.16150944 6.66979185,8.31153062 C6.65769536,8.51889732 6.68050086,8.72423386 6.74194086,8.91588658 C6.78442514,9.04832179 6.92637812,9.08547115 7.04108958,9.0064266 C7.11888623,8.95285137 7.16629509,8.76757917 7.13098272,8.65937409 C7.12513966,8.64147174 7.11925753,8.62857889 7.10419065,8.63121546" id="Fill-30" fill="#FFFFFF"></path><path d="M2.32953106,8.65852864 C2.34149783,8.58694573 2.35724897,8.51666934 2.40053902,8.45566432 C2.40396541,8.47795075 2.40741736,8.50021206 2.43237371,8.51038794 C2.4097698,8.56596583 2.38143821,8.6197598 2.37721916,8.68106633 C2.34983366,8.6970211 2.33904311,8.67908141 2.32953106,8.65852864" id="Fill-32" fill="#FFFFFF"></path><path d="M6.27269661,3.76199868 C6.22879288,3.80461175 6.18486357,3.84722481 6.14095983,3.88983788 C6.13004143,3.87893336 6.1191486,3.86805396 6.10825577,3.85717456 C6.14382368,3.80687306 6.18811096,3.76513939 6.2383305,3.72920974 C6.24978587,3.74013939 6.26124124,3.75106904 6.27269661,3.76199868" id="Fill-34" fill="#FFFFFF"></path><path d="M2.31582796,8.49323764 C2.33173252,8.50075021 2.34763708,8.50828789 2.36351606,8.51577533 C2.39200107,8.54296126 2.46848102,8.51605171 2.4540851,8.59047382 C2.44449634,8.64022257 2.40724081,8.65459443 2.35978284,8.64818739 C2.29987227,8.64012207 2.3049607,8.59575021 2.30721086,8.55424267 C2.30833594,8.53381553 2.31286184,8.5135894 2.31582796,8.49323764" id="Fill-36" fill="#FFFFFF"></path><path d="M3.39600825,8.58186094 C3.38422047,8.63160968 3.35115842,8.64150918 3.30871218,8.63356948 C3.2708174,8.62645893 3.26534541,8.604273 3.27409036,8.56944888 C3.2840371,8.52997652 3.29183596,8.49588104 3.34635126,8.5101524 C3.38710988,8.52078054 3.39779815,8.54801672 3.39600825,8.58186094" id="Fill-38" fill="#FFFFFF"></path><path d="M6.14703387,8.57523903 C6.14672221,8.54074154 6.13346234,8.50549028 6.1868135,8.5082541 C6.22378815,8.51018878 6.24696459,8.53036466 6.24526461,8.56393249 C6.24353629,8.59878174 6.2257148,8.63378174 6.18400852,8.63473651 C6.13422733,8.63584204 6.16448704,8.58875661 6.14703387,8.57523903" id="Fill-40" fill="#FFFFFF"></path><path d="M6.18561435,8.97953788 C6.22869511,8.98453788 6.24345112,9.01157306 6.24514721,9.04855799 C6.24664542,9.08117105 6.23157847,9.11463839 6.19805237,9.11564341 C6.12904966,9.11775397 6.16786192,9.06051778 6.15254055,9.03197507 C6.140046,9.00873386 6.13928276,8.98172381 6.18561435,8.97953788" id="Fill-42" fill="#FFFFFF"></path><path d="M7.69242211,8.58637392 C7.68440312,8.61844546 7.66788496,8.63766133 7.6310072,8.63380462 C7.59206468,8.62974493 7.59369728,8.60355994 7.59297702,8.58309233 C7.59230477,8.56394413 7.58788712,8.52997806 7.62145164,8.5347482 C7.65093463,8.53887555 7.67244666,8.57074411 7.69242211,8.58637392" id="Fill-44" fill="#FFFFFF"></path><path d="M4.82442634,8.57910357 C4.81915892,8.61910357 4.79481625,8.64058598 4.74866235,8.63937995 C4.71127898,8.63842518 4.69031155,8.62199302 4.70304543,8.58588749 C4.71381041,8.55546035 4.6954767,8.501189 4.75469688,8.50350056 C4.79635046,8.50515885 4.82616511,8.52777191 4.82442634,8.57910357" id="Fill-46" fill="#FFFFFF"></path></g></g></g></svg>