<svg xmlns:xlink="http://www.w3.org/1999/xlink" xmlns="http://www.w3.org/2000/svg" width="100" height="66.66666666666667" viewBox="0 0 48 32" fill="none"><rect width="48" height="32" rx="6" fill="#108DE8"></rect><path fill-rule="evenodd" clip-rule="evenodd" d="M30.7445 16.8551C30.7445 16.3946 30.7205 15.9325 30.7492 15.4738C30.8202 14.342 31.7801 13.4629 32.8884 13.4883C33.9773 13.5133 34.9095 14.4248 34.9399 15.5345C34.965 16.4552 34.9434 17.3771 34.9529 18.2983C34.9549 18.4863 34.8898 18.5327 34.709 18.5393C33.8904 18.5695 33.8906 18.5754 33.8905 17.7724C33.8905 17.0873 33.896 16.4022 33.8885 15.7171C33.8813 15.0657 33.4624 14.6045 32.8717 14.579C32.3042 14.5546 31.8246 14.9765 31.7951 15.6169C31.7552 16.4773 31.7683 17.3409 31.7807 18.2027C31.7845 18.4641 31.7173 18.5461 31.4476 18.5418C30.7311 18.5305 30.7309 18.5439 30.7309 17.8119V16.8551H30.7445Z" fill="white"></path><mask id="mask0" maskUnits="userSpaceOnUse" x="7" y="11" width="10" height="10"><path fill-rule="evenodd" clip-rule="evenodd" d="M7 11H16.7519V21H7V11Z" fill="white"></path></mask><g mask="url(#mask0)"><path fill-rule="evenodd" clip-rule="evenodd" d="M14.461 17.6561C13.8747 17.3266 13.2571 17.3665 12.6412 17.5512C12.0767 17.7204 11.5235 17.9279 10.9566 18.088C10.3845 18.2496 9.81367 18.2439 9.2709 17.9508C9.13806 17.879 9.03395 17.7959 9.03395 17.6305C9.03402 16.687 9.03402 15.7434 9.03402 14.7082C9.91459 15.3406 10.74 15.1331 11.5666 14.815C12.0507 14.6289 12.5314 14.434 13.0366 14.3077C13.2824 14.2462 13.53 14.2418 13.7757 14.2715C14.4977 14.3586 14.7248 14.6206 14.7247 15.3405C14.7246 16.0494 14.7207 16.7584 14.7268 17.4672C14.7286 17.6765 14.7126 17.7975 14.461 17.6561ZM14.0512 11.5292C13.5447 11.2691 12.9963 11.1601 12.461 11H11.2553C11.2281 11.0238 11.1967 11.0344 11.1601 11.0365C9.93097 11.1054 8.97948 11.7141 8.18877 12.6029C7.50012 13.3768 7.08785 14.2839 6.99998 15.3262V16.6738C7.02381 16.7011 7.03388 16.7325 7.03643 16.7689C7.12757 18.0522 7.74835 19.0609 8.68636 19.8923C9.39792 20.5229 10.2296 20.9062 11.1844 21H12.461C12.4991 20.9789 12.5352 20.9448 12.5757 20.9383C14.756 20.5908 16.3486 18.9439 16.6991 16.6718C17.0137 14.6307 15.8962 12.4765 14.0512 11.5292Z" fill="white"></path></g><path fill-rule="evenodd" clip-rule="evenodd" d="M39.9676 16.2199C39.9708 16.3775 39.8664 16.3805 39.7536 16.3802C39.4699 16.3792 39.1862 16.3798 38.9025 16.3798C38.6189 16.3798 38.3352 16.3799 38.0515 16.3797C37.9559 16.3797 37.8486 16.3878 37.8517 16.2475C37.8593 15.9072 37.7992 15.5607 37.9359 15.2312C38.1028 14.8295 38.5212 14.5585 38.9435 14.5778C39.3781 14.5978 39.7608 14.8885 39.8993 15.3052C39.9988 15.6043 39.9612 15.9137 39.9676 16.2199ZM41.0425 15.397C40.9741 15.3687 40.9847 15.3048 40.9734 15.249C40.7584 14.1834 39.8418 13.4399 38.8057 13.4897C37.7748 13.5393 36.8792 14.3681 36.8111 15.4426C36.7501 16.4075 36.7486 17.3817 36.8096 18.3462C36.8352 18.7491 37.2677 18.4603 37.5054 18.5242C37.6282 18.5572 37.8608 18.6271 37.8501 18.3325C37.8419 18.1083 37.8553 17.8834 37.8467 17.6593C37.8408 17.5085 37.8915 17.4514 38.0481 17.4534C38.615 17.4607 39.1822 17.4612 39.7491 17.4532C39.9206 17.4508 39.9601 17.5162 39.9742 17.6791C39.9985 17.9608 39.8174 18.3546 40.0686 18.4964C40.3001 18.627 40.6656 18.5204 40.972 18.5182C41.0469 17.8992 40.9832 17.2777 41.0072 16.6579C41.0226 16.2613 40.9598 15.8624 41.0425 15.468V15.397Z" fill="white"></path><path fill-rule="evenodd" clip-rule="evenodd" d="M27.0574 16.3801C26.9511 16.3801 26.8448 16.3801 26.7386 16.38C26.4669 16.3798 26.1952 16.3801 25.9236 16.3796C25.829 16.3795 25.7172 16.3902 25.7203 16.2507C25.7281 15.9108 25.6628 15.5645 25.8002 15.235C25.9755 14.8146 26.4015 14.5477 26.8388 14.5825C27.309 14.62 27.6794 14.9402 27.7878 15.403C27.9887 16.2608 27.8996 16.3801 27.0574 16.3801ZM28.8549 15.4162C28.76 14.364 27.9014 13.5458 26.8727 13.4898C25.8651 13.4349 24.9489 14.1491 24.7164 15.1759C24.5894 15.7369 24.6926 16.3072 24.6568 16.7747C24.6568 17.3331 24.6666 17.7943 24.6525 18.2549C24.6461 18.4648 24.6976 18.5388 24.9242 18.541C25.7093 18.5485 25.7092 18.5585 25.7161 17.7822C25.7165 17.7467 25.72 17.7108 25.7158 17.6759C25.695 17.5071 25.7661 17.448 25.9361 17.4531C26.2786 17.4635 26.6219 17.4462 26.9642 17.4592C27.2432 17.4698 27.5906 17.3359 27.782 17.52C27.9448 17.6766 27.8169 18.0146 27.8337 18.2717C27.8361 18.307 27.8362 18.3426 27.8356 18.378C27.8336 18.477 27.8757 18.5329 27.9803 18.5328C28.2286 18.5325 28.4767 18.5318 28.7249 18.5341C28.8763 18.5356 28.8921 18.4381 28.89 18.3217C28.8727 17.3532 28.9421 16.3825 28.8549 15.4162Z" fill="white"></path><path fill-rule="evenodd" clip-rule="evenodd" d="M20.4085 17.453C19.6382 17.4924 19.6382 17.4924 19.6382 16.7235C19.6382 16.4875 19.6382 16.2515 19.638 16.0155C19.6379 15.6145 19.6374 15.2133 19.6382 14.8122C19.6384 14.7081 19.6214 14.6092 19.7728 14.5698C20.6155 14.35 21.514 14.8601 21.7192 15.6845C21.9339 16.5465 21.2956 17.4077 20.4085 17.453ZM20.7937 13.5431C20.1154 13.4207 19.4283 13.5101 18.7455 13.4887C18.5295 13.4819 18.5836 13.6498 18.5831 13.7672C18.5794 14.5106 18.5812 15.254 18.5812 15.9974C18.5812 16.7408 18.5912 17.4843 18.5756 18.2274C18.5704 18.4811 18.6566 18.5491 18.8986 18.5409C19.4172 18.5234 19.9375 18.5493 20.4558 18.5274C21.7087 18.4744 22.7275 17.4682 22.8108 16.2218C22.8987 14.9057 22.0489 13.7697 20.7937 13.5431Z" fill="white"></path></svg>